HIERARCHY
ROOT Hips
{
 OFFSET 0.000000 0.000000 0.000000
 CHANNELS 6 Xposition Yposition Zposition Yrotation Xrotation Zrotation
 JOINT Chest
 {
  OFFSET 0.000000 9.588913 -0.003946
  CHANNELS 3 Yrotation Xrotation Zrotation
  JOINT Chest2
  {
   OFFSET 0.000000 9.541882 0.008053
   CHANNELS 3 Yrotation Xrotation Zrotation
   JOINT Chest3
   {
    OFFSET 0.000000 9.501360 0.000000
    CHANNELS 3 Yrotation Xrotation Zrotation
    JOINT Chest4
    {
     OFFSET 0.000000 9.491660 0.000000
     CHANNELS 3 Yrotation Xrotation Zrotation
     JOINT Neck
     {
      OFFSET 0.000000 14.331917 0.000000
      CHANNELS 3 Yrotation Xrotation Zrotation
      JOINT Head
      {
       OFFSET 0.000000 8.884799 0.017034
       CHANNELS 3 Yrotation Xrotation Zrotation
       End Site
       {
        OFFSET 0.000000 16.896195 0.008993
       }
      }
     }
     JOINT RightCollar
     {
      OFFSET -2.923010 9.499495 0.000000
      CHANNELS 3 Yrotation Xrotation Zrotation
      JOINT RightShoulder
      {
       OFFSET -13.795216 0.000000 0.000000
       CHANNELS 3 Yrotation Xrotation Zrotation
       JOINT RightElbow
       {
        OFFSET -30.272209 0.000000 0.000000
        CHANNELS 3 Yrotation Xrotation Zrotation
        JOINT RightWrist
        {
         OFFSET -24.478199 0.000000 0.000000
         CHANNELS 3 Yrotation Xrotation Zrotation
         End Site
         {
          OFFSET -18.090752 0.000000 0.000000
         }
        }
       }
      }
     }
     JOINT LeftCollar
     {
      OFFSET 2.923010 9.499495 0.000000
      CHANNELS 3 Yrotation Xrotation Zrotation
      JOINT LeftShoulder
      {
       OFFSET 13.795216 0.000000 0.000000
       CHANNELS 3 Yrotation Xrotation Zrotation
       JOINT LeftElbow
       {
        OFFSET 30.272209 0.000000 0.000000
        CHANNELS 3 Yrotation Xrotation Zrotation
        JOINT LeftWrist
        {
         OFFSET 24.478199 0.000000 0.000000
         CHANNELS 3 Yrotation Xrotation Zrotation
         End Site
         {
          OFFSET 18.090752 0.000000 0.000000
         }
        }
       }
      }
     }
    }
   }
  }
 }
 JOINT RightHip
 {
  OFFSET -7.826875 0.019532 0.001973
  CHANNELS 3 Yrotation Xrotation Zrotation
  JOINT RightKnee
  {
   OFFSET 0.000000 -40.546152 -0.001885
   CHANNELS 3 Yrotation Xrotation Zrotation
   JOINT RightAnkle
   {
    OFFSET 0.000000 -39.417092 -0.003189
    CHANNELS 3 Yrotation Xrotation Zrotation
    JOINT RightToe
    {
     OFFSET 0.000000 -7.579396 17.243563
     CHANNELS 3 Yrotation Xrotation Zrotation
     End Site
     {
      OFFSET 0.000000 -1.500329 6.694466
     }
    }
   }
  }
 }
 JOINT LeftHip
 {
  OFFSET 7.826875 0.019532 0.001973
  CHANNELS 3 Yrotation Xrotation Zrotation
  JOINT LeftKnee
  {
   OFFSET 0.000000 -40.546152 -0.001885
   CHANNELS 3 Yrotation Xrotation Zrotation
   JOINT LeftAnkle
   {
    OFFSET 0.000000 -39.417092 -0.003189
    CHANNELS 3 Yrotation Xrotation Zrotation
    JOINT LeftToe
    {
     OFFSET 0.000000 -7.579396 17.243563
     CHANNELS 3 Yrotation Xrotation Zrotation
     End Site
     {
      OFFSET 0.000000 -1.500329 6.694466
     }
    }
   }
  }
 }
}
MOTION
Frames: 13
Frame Time: 0.008333
0.000000 87.345680 0.000000 0.000000 -5.767889 0.000000 0.000000 11.653876 0.000000 0.000000 -5.885988 0.000000 0.000000 -0.000000 0.000000 0.000000 -0.000000 0.000000 0.000000 12.528808 0.000000 0.000000 0.711711 0.000000 0.000000 -0.000000 0.000000 0.000000 -0.000000 0.000000 2.309063 -0.000000 0.000000 -2.309063 -0.000000 -0.000000 0.000000 -0.000000 0.000000 0.000000 0.000000 0.000000 -2.309063 0.000000 0.000000 2.309063 -0.000000 0.000000 0.000000 8.520374 0.000000 0.000000 1.905768 0.000000 -0.000000 -4.658254 0.000000 0.000000 -0.000000 0.000000 0.000000 8.520374 0.000000 0.000000 1.905768 0.000000 -0.000000 -4.658254 0.000000 0.000000 -0.000000 0.000000
-17.159942 89.195498 31.204440 -136.236566 -8.879467 -0.064802 3.614764 3.396932 0.526634 2.093294 1.947891 0.309182 2.618637 2.432994 0.397646 2.093294 1.947891 0.309182 -3.712030 16.500048 -1.369939 -3.610930 -8.339252 -0.601691 1.493150 1.622497 -2.048460 -11.310040 0.916176 92.843481 7.722111 -1.117509 4.265325 1.660749 -8.686837 0.988995 -8.629180 1.628414 -0.249937 12.046261 -0.759117 -90.940008 0.171207 -13.199761 -5.102951 -3.163617 -1.946065 0.818458 -4.617177 8.059208 0.553967 4.625105 5.031926 -0.020468 3.852078 -4.419093 -1.451664 0.050550 -0.056923 0.042500 7.759153 10.669726 -0.470388 -5.298651 2.192080 -0.381748 -1.970099 -4.483398 1.272755 -0.034742 0.034713 0.008479
-17.173105 89.193134 31.200055 -136.255581 -8.869855 -0.076080 3.615300 3.390066 0.520688 2.093258 1.941849 0.307576 2.618576 2.425452 0.395603 2.093258 1.941849 0.307576 -3.734943 16.449125 -1.373643 -3.634319 -8.393117 -0.600341 1.494160 1.638295 -2.030420 -11.311660 0.920915 92.845651 7.665800 -1.113392 4.238657 1.655598 -8.690090 0.987085 -8.616683 1.636667 -0.250283 12.050175 -0.754525 -90.941135 0.183682 -13.179851 -5.100428 -3.168645 -1.946416 0.807059 -4.622535 8.037615 0.560624 4.630735 5.078316 -0.015861 3.868447 -4.450005 -1.459206 0.047839 -0.052711 0.042228 7.798446 10.681104 -0.453172 -5.299579 2.162252 -0.389689 -1.992259 -4.476563 1.279501 -0.035039 0.038159 0.006256
-17.188884 89.190518 31.194665 -136.274919 -8.862360 -0.087288 3.617240 3.383188 0.516201 2.093872 1.936103 0.305868 2.619327 2.418279 0.393438 2.093872 1.936103 0.305868 -3.762067 16.398009 -1.381649 -3.661288 -8.446979 -0.602600 1.491653 1.658182 -2.013977 -11.313693 0.930174 92.849956 7.622289 -1.113807 4.217795 1.651353 -8.692805 0.988265 -8.608542 1.648998 -0.251641 12.061493 -0.749907 -90.939512 0.197610 -13.161270 -5.103306 -3.180271 -1.949465 0.798223 -4.629196 8.020449 0.564911 4.638458 5.124316 -0.009896 3.885105 -4.483399 -1.465520 0.045534 -0.048797 0.041015 7.839841 10.691615 -0.437079 -5.304368 2.141490 -0.396859 -2.012625 -4.474884 1.286879 -0.034577 0.040928 0.004655
-17.206299 89.187756 31.188392 -136.294716 -8.856478 -0.099093 3.620239 3.376565 0.513354 2.094732 1.931133 0.303766 2.620385 2.412078 0.390786 2.094732 1.931133 0.303766 -3.791901 16.345699 -1.392647 -3.690514 -8.501970 -0.607417 1.487017 1.679429 -2.000582 -11.318749 0.943152 92.857322 7.588589 -1.116328 4.205894 1.648683 -8.694892 0.991961 -8.602759 1.662334 -0.250919 12.079050 -0.742892 -90.937923 0.208444 -13.138425 -5.108930 -3.193651 -1.955048 0.794168 -4.634086 8.007815 0.570393 4.648783 5.167559 -0.006121 3.897339 -4.516866 -1.468679 0.042830 -0.045507 0.038752 7.878879 10.702191 -0.425773 -5.310581 2.126842 -0.401729 -2.013170 -4.477649 1.294495 -0.032079 0.043184 0.004650
-17.224852 89.185026 31.181142 -136.311553 -8.854739 -0.111521 3.622740 3.372209 0.511305 2.095008 1.928186 0.301920 2.620716 2.408404 0.388463 2.095008 1.928186 0.301920 -3.821506 16.291290 -1.405969 -3.718974 -8.559169 -0.614740 1.482943 1.697268 -1.990101 -11.327352 0.959203 92.864221 7.562612 -1.124444 4.202324 1.647360 -8.693705 1.001997 -8.597462 1.673350 -0.247438 12.096942 -0.732838 -90.938580 0.216318 -13.112115 -5.113402 -3.204595 -1.959315 0.792694 -4.639227 8.001599 0.577614 4.658554 5.209328 -0.005173 3.905222 -4.550407 -1.470677 0.040251 -0.043332 0.036909 7.907804 10.716083 -0.415118 -5.320030 2.114759 -0.404314 -2.010338 -4.482260 1.300407 -0.029899 0.045110 0.004502
-17.244160 89.182466 31.172909 -136.324904 -8.859019 -0.123810 3.624382 3.371536 0.509636 2.094794 1.927713 0.300918 2.620443 2.407819 0.387206 2.094794 1.927713 0.300918 -3.850042 16.234750 -1.421974 -3.745685 -8.618634 -0.625140 1.478898 1.708959 -1.982792 -11.339968 0.979298 92.869805 7.545269 -1.135519 4.205388 1.646270 -8.692536 1.018104 -8.594536 1.680656 -0.243890 12.112492 -0.720388 -90.940135 0.222380 -13.085563 -5.113707 -3.213310 -1.961811 0.793668 -4.644405 8.001974 0.584674 4.664555 5.252256 -0.005172 3.912898 -4.585109 -1.472911 0.038447 -0.042262 0.035672 7.921003 10.734351 -0.403241 -5.329680 2.105809 -0.406068 -2.014484 -4.488064 1.304603 -0.029664 0.046433 0.003125
-17.263451 89.180065 31.164001 -136.336961 -8.867069 -0.135843 3.626249 3.372849 0.509538 2.094854 1.928662 0.300548 2.620517 2.409007 0.386750 2.094854 1.928662 0.300548 -3.879965 16.177350 -1.441409 -3.773141 -8.678909 -0.638861 1.472429 1.716604 -1.980298 -11.355820 1.003251 92.878089 7.535927 -1.143045 4.210651 1.645160 -8.694674 1.038939 -8.595219 1.684540 -0.241342 12.122668 -0.703765 -90.941839 0.226270 -13.061871 -5.108719 -3.219601 -1.962911 0.797086 -4.646754 8.005933 0.592788 4.664530 5.296332 -0.007385 3.922583 -4.620175 -1.474650 0.037038 -0.042242 0.034740 7.919249 10.754043 -0.395602 -5.329049 2.102216 -0.409310 -2.003455 -4.496079 1.310057 -0.028644 0.046477 0.002824
-17.282560 89.177837 31.154485 -136.348542 -8.879097 -0.146775 3.628576 3.375072 0.510478 2.095267 1.930369 0.300175 2.621035 2.411142 0.386295 2.095267 1.930369 0.300175 -3.911747 16.121180 -1.463402 -3.802064 -8.737743 -0.654884 1.464601 1.722589 -1.981600 -11.372608 1.031507 92.890326 7.534450 -1.145434 4.216175 1.642957 -8.696012 1.058980 -8.597340 1.687075 -0.238773 12.125362 -0.682884 -90.943680 0.231179 -13.042166 -5.098188 -3.223097 -1.964364 0.800612 -4.645881 8.014893 0.601437 4.659428 5.338616 -0.011411 3.931987 -4.653795 -1.477036 0.035521 -0.043022 0.034585 7.908855 10.776236 -0.391707 -5.318503 2.102329 -0.412874 -1.984424 -4.504829 1.315017 -0.026616 0.044950 0.004114
-17.301494 89.175765 31.144410 -136.360737 -8.895235 -0.155651 3.630080 3.378316 0.510523 2.095369 1.932537 0.299507 2.621161 2.413857 0.385473 2.095369 1.932537 0.299507 -3.941656 16.067962 -1.485789 -3.828928 -8.793443 -0.671755 1.457759 1.726969 -1.983848 -11.385108 1.064878 92.901692 7.541609 -1.144296 4.223930 1.642048 -8.694552 1.072967 -8.598734 1.689391 -0.237219 12.124715 -0.660840 -90.944170 0.242821 -13.025815 -5.082434 -3.224520 -1.966149 0.802042 -4.642707 8.029867 0.608548 4.655307 5.376877 -0.015775 3.938758 -4.685279 -1.479690 0.034163 -0.043739 0.034595 7.897602 10.802858 -0.386938 -5.304464 2.101826 -0.415255 -1.980094 -4.511333 1.317054 -0.025919 0.042157 0.005381
-17.319678 89.173728 31.133978 -136.376376 -8.911968 -0.163678 3.631842 3.381358 0.510019 2.095828 1.934333 0.298585 2.621732 2.416107 0.384334 2.095828 1.934333 0.298585 -3.969101 16.019476 -1.507427 -3.853362 -8.844144 -0.688403 1.449673 1.730333 -1.984515 -11.387848 1.101414 92.907993 7.556551 -1.141596 4.233741 1.646042 -8.693975 1.082859 -8.601349 1.691829 -0.238061 12.122420 -0.638326 -90.941742 0.260591 -13.016067 -5.063687 -3.223841 -1.966948 0.802562 -4.635998 8.046058 0.615047 4.655343 5.412549 -0.019208 3.943962 -4.715039 -1.482462 0.033538 -0.044041 0.034327 7.891067 10.831594 -0.382473 -5.288138 2.098575 -0.416088 -1.978139 -4.515420 1.317871 -0.025209 0.038882 0.006553
-17.336812 89.171606 31.123525 -136.395746 -8.926019 -0.171063 3.634664 3.382891 0.508501 2.097133 1.935063 0.297293 2.623357 2.417025 0.382730 2.097133 1.935063 0.297293 -3.995309 15.976862 -1.528328 -3.876688 -8.888592 -0.704570 1.441521 1.733572 -1.982324 -11.385292 1.139798 92.911031 7.578314 -1.137663 4.244784 1.651400 -8.692232 1.089953 -8.605823 1.694297 -0.239453 12.120996 -0.615006 -90.937440 0.280966 -13.016986 -5.042741 -3.219793 -1.965324 0.803778 -4.625981 8.057847 0.620661 4.658390 5.449710 -0.019808 3.948796 -4.744997 -1.486361 0.033291 -0.043923 0.033693 7.890992 10.859711 -0.379246 -5.271279 2.091219 -0.413623 -1.977766 -4.516922 1.317759 -0.024099 0.035907 0.006843
-17.353121 89.169378 31.113101 -136.418473 -8.937402 -0.177217 3.637881 3.382602 0.505555 2.098890 1.934661 0.295734 2.625545 2.416529 0.380788 2.098890 1.934661 0.295734 -4.020166 15.940104 -1.549248 -3.898611 -8.926816 -0.721079 1.437258 1.738399 -1.979475 -11.387929 1.179448 92.914443 7.603639 -1.128373 4.256571 1.656024 -8.689172 1.095971 -8.611131 1.695543 -0.240035 12.127034 -0.589653 -90.933429 0.303727 -13.024393 -5.018139 -3.210391 -1.958867 0.803851 -4.610858 8.064406 0.625109 4.663632 5.490244 -0.017438 3.950620 -4.776330 -1.490354 0.032775 -0.043479 0.031943 7.897628 10.887156 -0.376649 -5.257622 2.079910 -0.407270 -1.983201 -4.516185 1.315667 -0.023714 0.033538 0.006167
